# xmcd
#
# Track frame offsets:
#	150
#	25555
#	46905
#	56762
#	74090
#	96605
#	108300
#	120700
#	132770
#	148900
#	162875
#	178270
#	189685
#
# Disc length: 3063 seconds
#
# Revision: 1
# Processed by: cddbd v1.5.1PL0 Copyright (c) Steve Scherf et al.
# Submitted via: audiograbber 1.83.01
#
DISCID=c50bf50d
DTITLE=Anginho dos Teclados - Seresta - Vol. 18
DYEAR=1900
DGENRE=Seresta
TTITLE0=Tudo que ela quer eu dou
TTITLE1=Galeguin do zoi azul
TTITLE2=Fio dental
TTITLE3=O destino nos separou
TTITLE4=Eu preciso de voce
TTITLE5=Xote ecologico
TTITLE6=Pistoleiro do amor
TTITLE7=A noiva
TTITLE8=Adocica
TTITLE9=Ta bom ta bom ta bom
TTITLE10=Menina bonita nao chora
TTITLE11=Improviso - solado
TTITLE12=Nessa solidao
EXTD=Anginho dos Teclados\nSeresta - Vol:18\nGMCD - 13013
EXTT0=
EXTT1=
EXTT2=
EXTT3=
EXTT4=
EXTT5=
EXTT6=
EXTT7=
EXTT8=
EXTT9=
EXTT10=
EXTT11=
EXTT12=
PLAYORDER=
